<svg id="Layer_1" enable-background="new 0 0 512 512" height="512" viewBox="0 0 512 512" width="512" xmlns="http://www.w3.org/2000/svg"><g><ellipse cx="256" cy="272.5" rx="15" ry="15" transform="matrix(.16 -.987 .987 .16 -53.988 481.545)"/><path d="m484 211.345v-5.345c0-41.355-33.645-75-75-75h-103.182c15.436-13.747 25.182-33.752 25.182-56 0-41.355-33.645-75-75-75s-75 33.645-75 75c0 22.247 9.746 42.252 25.182 56h-103.182c-41.355 0-75 33.645-75 75v5.345c-16.408 6.721-28 22.856-28 41.655v167c0 8.284 6.716 15 15 15h151v62c0 8.284 6.716 15 15 15l149-.005c8.284 0 15-6.716 15-15v-61.995h152c8.284 0 15-6.716 15-15v-167c0-18.799-11.592-34.934-28-41.655zm-30-5.345v3.923c-18.494 5.592-32 22.784-32 43.078v67h-46.73l8.683-109.181c.578-7.276-1.895-14.304-6.963-19.792-4.677-5.063-11.08-8.217-17.885-8.889-5.044-7.745-10.892-14.816-17.39-21.139h67.285c24.813 0 45 20.187 45 45zm-161.5 224.5c-7.666 0-14.942 1.681-21.5 4.672v-72.172h44v72.625c-6.812-3.283-14.445-5.125-22.5-5.125zm-36.5-274.5c24.197 0 47.167 9.574 64.293 26h-128.634c17.149-16.544 40.016-26 64.341-26zm-60 207h45v72.625c-6.812-3.283-14.445-5.125-22.5-5.125s-15.688 1.842-22.5 5.125zm22.5 97.5c11.963 0 21.72 9.6 21.987 21.5h-43.975c.268-11.9 10.025-21.5 21.988-21.5zm125.638-127.5h-176.279l-9.623-121h195.528zm-88.138-303c24.813 0 45 20.187 45 45s-20.187 45-45 45-45-20.187-45-45 20.187-45 45-45zm-153 131h67.208c-6.441 6.306-12.255 13.376-17.311 21.139-6.806.672-13.21 3.826-17.888 8.89-5.068 5.487-7.541 12.516-6.962 19.792l8.684 109.179h-46.731v-67c0-20.294-13.506-37.486-32-43.078v-3.922c0-24.813 20.187-45 45-45zm-73 92c0-8.271 6.729-15 15-15s15 6.729 15 15v152h-30zm60 152v-55h52.44c4.934 7.897 13.461 13 23.19 13h.37v42zm181 72.846c2.142-9.902 10.966-17.346 21.5-17.346 11.961 0 21.717 9.597 21.987 21.494h-43.487zm151-72.846h-77v-42h1.369c9.729 0 18.255-5.104 23.19-13h52.441zm60 0h-30v-152c0-8.271 6.729-15 15-15s15 6.729 15 15z"/></g></svg>